<svg width="378" height="228" viewBox="0 0 378 228" fill="none" xmlns="http://www.w3.org/2000/svg">
<path d="M335.125 32.875C335.125 50.9563 313.581 65.75 287.25 65.75H47.875C21.5437 65.75 0 50.9563 0 32.875C0 14.7937 21.5437 0 47.875 0H287.25C313.581 0 335.125 14.7937 335.125 32.875Z" fill="white"/>
<path d="M378 73.7143C378 87.8571 356.46 99.4286 330.133 99.4286H234.4C208.073 99.4286 186.533 87.8571 186.533 73.7143C186.533 59.5714 208.073 48 234.4 48H330.133C356.46 48 378 59.5714 378 73.7143ZM210.467 202.286C210.467 216.429 188.927 228 162.6 228H66.8667C40.54 228 19 216.429 19 202.286C19 188.143 40.54 176.571 66.8667 176.571H162.6C188.927 176.571 210.467 188.143 210.467 202.286Z" fill="white"/>
</svg>
