<svg width="1512" height="646" viewBox="0 0 1512 646" fill="none" xmlns="http://www.w3.org/2000/svg">
<path d="M1551 575.394C1551 758 1169.17 684.829 753 684.829C336.827 684.829 -42.7722 694.142 -93 575.394C-150.403 438.018 290.827 286 707 286C1123.17 286 1551 428.5 1551 575.394Z" fill="#FFDD7D"/>
<path d="M380.625 511.491C380.625 531.053 336.525 514.425 311.719 521.272C286.913 528.119 281.4 541.812 242.812 541.812C205.603 541.812 198.712 529.097 173.906 521.272C149.1 514.425 105 530.075 105 511.491C105 488.994 167.016 444 242.812 444C318.609 444 380.625 488.994 380.625 511.491Z" fill="#83BF4F"/>
<path d="M325.5 490.95C325.5 501.709 296.559 500.731 242.812 500.731C189.066 500.731 160.125 501.709 160.125 490.95C160.125 480.191 189.066 461.606 242.812 461.606C296.559 461.606 325.5 480.191 325.5 490.95Z" fill="#75A843"/>
<path d="M262.624 482.704C262.624 482.704 294.03 299.16 165.265 137L137 153.038C137 153.038 215.515 210.061 215.515 482.704C215.515 482.704 239.069 505.87 262.624 482.704Z" fill="#DBB471"/>
<path d="M40.766 104.468C64.7035 104.468 86.2472 107.756 105.397 115.974C98.2159 102.824 95.8222 86.387 100.61 69.9495C112.578 23.9245 172.422 -5.66301 234.66 0.911991C241.841 2.55574 249.022 2.55573 256.203 5.84323C205.935 7.48698 158.06 42.0057 146.091 86.387C138.91 112.687 143.697 140.631 160.453 160.356C134.122 145.562 98.216 137.343 59.916 137.343C-7.10903 137.343 -64.559 163.643 -76.5278 196.518C-78.9215 191.587 -78.9215 186.656 -78.9215 181.724C-81.3153 138.987 -28.6528 104.468 40.766 104.468" fill="#699635"/>
<path d="M227.478 83.0995C222.691 84.7432 215.51 86.387 210.722 88.0307L215.51 84.7432C277.747 48.5807 359.135 42.0057 409.403 66.662C404.616 61.7307 399.828 55.1557 395.041 50.2245C347.166 10.7745 256.203 7.48696 193.966 43.6495C148.485 69.9495 129.335 111.043 143.697 147.206C95.8222 132.412 33.5847 137.343 -11.8965 163.643C-74.134 199.806 -86.1028 260.624 -35.834 301.718C-28.6528 306.649 -23.8653 311.581 -16.684 314.868C-43.0153 277.062 -21.4715 222.818 40.766 186.656L45.5534 183.368C40.7659 186.656 38.3722 189.943 35.9785 193.231C4.85973 232.681 19.2222 280.349 71.8847 301.718C79.066 305.006 86.2472 306.649 91.0347 308.293C55.1285 285.281 47.9472 239.256 83.8535 201.449C117.366 166.931 172.422 175.149 172.422 175.149C172.422 175.149 172.422 132.412 232.266 114.331C296.897 94.6057 356.741 112.687 385.466 140.631C385.466 135.699 383.072 130.768 380.678 125.837C354.347 88.0307 287.322 68.3057 227.478 83.0995Z" fill="#83BF4F"/>
<path d="M276.92 422.485C276.92 422.485 280.297 454 243.147 454C216.128 454 208.5 428.5 208.5 428.5L276.92 422.485ZM265.5 355C265.5 355 275.151 382.773 238 387.5C210.981 390.651 205.5 365 205.5 365L265.5 355ZM253 285.5C253 285.5 256.651 316.273 219.5 321C192.481 324.151 190.5 297.5 190.5 297.5L253 285.5ZM228.5 230.5C228.5 230.5 240.962 252.546 205.5 262C180.17 268.303 177.5 244 177.5 244L228.5 230.5Z" fill="#89664C"/>
</svg>
