<svg width="264" height="431" viewBox="0 0 264 431" fill="none" xmlns="http://www.w3.org/2000/svg">
<path d="M108.237 398.503C114.637 421.703 130.571 429.503 137.737 430.503C181.495 430.503 213.509 372.805 226.342 338.33C227.849 334.28 230.683 329.403 231.59 325.178C236.693 301.412 239.08 216.383 239.705 168.586C239.727 166.867 240.191 165.232 241.027 163.73C248.147 150.949 256.857 131.629 262.274 119.017C264.05 114.88 262.645 110.153 259.945 106.55C251.336 95.0612 249.379 76.9182 249.588 65.9517C249.631 63.7124 249.055 61.4954 247.798 59.641L229.404 32.4875C228.961 31.8337 228.596 31.1179 228.308 30.3824C219.405 7.61757 205.343 0.852989 197.939 0.0781269C196.813 -0.0396867 195.696 0.212117 194.634 0.602646C179.41 6.19893 165.888 8.50249 157.903 9.22751C154.667 9.52134 151.683 11.1434 149.473 13.5257C140.997 22.6639 129.426 26.5403 122.46 27.6747C120.684 27.9638 118.958 28.5456 117.481 29.573L109.17 35.3543C108.55 35.7856 107.983 36.2906 107.461 36.8365C93.9559 50.9592 72.2315 54.5808 58.9959 54.698C55.424 54.7296 51.9804 56.3092 49.9397 59.2409L18.9989 103.691C18.1679 104.885 17.0525 105.884 15.8324 106.675C-17.2646 128.152 9.51071 172.322 24.2374 189.503C36.2374 203.503 44.5707 229.003 47.2374 240.003C71.2374 316.003 74.2374 278.003 88.2374 314.503C102.237 351.003 100.237 369.503 108.237 398.503Z" fill="url(#paint0_linear_2_35)"/>
<defs>
<linearGradient id="paint0_linear_2_35" x1="135.551" y1="-182.716" x2="143.311" y2="430.466" gradientUnits="userSpaceOnUse">
<stop stop-color="#5EC5FF"/>
<stop offset="1" stop-color="#007ABF"/>
</linearGradient>
</defs>
</svg>
