<svg width="275" height="441" viewBox="0 0 275 441" fill="none" xmlns="http://www.w3.org/2000/svg">
<path d="M114.186 403.503C120.586 426.703 136.519 434.503 143.686 435.503C187.444 435.503 219.458 377.805 232.29 343.33C233.798 339.28 236.632 334.403 237.539 330.178C242.641 306.412 245.029 221.383 245.654 173.586C245.676 171.867 246.14 170.232 246.976 168.73C254.096 155.949 262.806 136.629 268.222 124.017C269.999 119.88 268.594 115.153 265.894 111.55C257.285 100.061 255.328 81.9182 255.537 70.9517C255.58 68.7124 255.003 66.4954 253.747 64.641L235.353 37.4875C234.91 36.8337 234.545 36.1179 234.257 35.3824C225.354 12.6176 211.292 5.853 203.887 5.07814C202.762 4.96032 201.645 5.21213 200.583 5.60266C185.358 11.1989 171.837 13.5025 163.852 14.2275C160.616 14.5213 157.632 16.1434 155.422 18.5257C146.946 27.6639 135.374 31.5403 128.409 32.6747C126.633 32.9639 124.907 33.5456 123.43 34.573L115.119 40.3543C114.499 40.7856 113.932 41.2906 113.41 41.8365C99.9046 55.9592 78.1803 59.5808 64.9446 59.698C61.3728 59.7296 57.9291 61.3092 55.8884 64.2409L24.9476 108.691C24.1166 109.885 23.0012 110.884 21.7811 111.675C-11.3159 133.152 15.4594 177.322 30.1861 194.503C42.1861 208.503 50.5195 234.003 53.1861 245.003C77.1861 321.003 80.1861 283.003 94.1861 319.503C108.186 356.003 106.186 374.503 114.186 403.503Z" stroke="black" stroke-width="10"/>
</svg>
